<?xml version="1.0" encoding="UTF-8"?>
<!DOCTYPE svg PUBLIC "-//W3C//DTD SVG 1.1//EN" "http://www.w3.org/Graphics/SVG/1.1/DTD/svg11.dtd">
<svg xmlns="http://www.w3.org/2000/svg" version="1.1" width="512px" height="512px" style="shape-rendering:geometricPrecision; text-rendering:geometricPrecision; image-rendering:optimizeQuality; fill-rule:evenodd; clip-rule:evenodd" xmlns:xlink="http://www.w3.org/1999/xlink">
<g><path style="opacity:0.979" fill="#000000" d="M 111.5,30.5 C 160.099,26.7013 194.599,46.7013 215,90.5C 230.337,139.49 217.171,178.656 175.5,208C 140.202,226.834 105.535,225.834 71.5,205C 38.5393,179.883 25.3726,146.716 32,105.5C 40.8623,71.3088 61.6956,47.8088 94.5,35C 100.253,33.3137 105.919,31.8137 111.5,30.5 Z M 122.5,77.5 C 128.695,76.3447 132.861,78.6781 135,84.5C 135.5,95.1615 135.667,105.828 135.5,116.5C 146.505,116.333 157.505,116.5 168.5,117C 173.868,120.232 175.368,124.732 173,130.5C 171.363,132.81 169.196,134.31 166.5,135C 156.172,135.5 145.839,135.666 135.5,135.5C 135.666,145.839 135.5,156.172 135,166.5C 131.868,174.1 126.701,175.933 119.5,172C 118.299,171.097 117.465,169.931 117,168.5C 116.5,157.505 116.333,146.505 116.5,135.5C 105.828,135.667 95.1615,135.5 84.5,135C 77.608,132.149 75.7747,127.316 79,120.5C 80.214,118.951 81.714,117.785 83.5,117C 94.495,116.5 105.495,116.333 116.5,116.5C 116.333,105.495 116.5,94.495 117,83.5C 118.36,80.9774 120.193,78.9774 122.5,77.5 Z"/></g>
<g><path style="opacity:0.979" fill="#000000" d="M 371.5,30.5 C 415.03,26.6801 447.864,43.3468 470,80.5C 482.841,108.053 483.841,136.053 473,164.5C 455.14,200.69 425.974,219.69 385.5,221.5C 372.683,220.225 359.85,219.225 347,218.5C 321.205,218.542 298.372,226.708 278.5,243C 266.667,254.833 254.833,266.667 243,278.5C 223.479,302.74 215.479,330.406 219,361.5C 227.351,406.937 212.517,442.437 174.5,468C 131.676,489.252 92.5098,484.085 57,452.5C 29.3285,421.148 22.9952,385.814 38,346.5C 55.8595,310.31 85.0262,291.31 125.5,289.5C 138.424,290.463 151.257,291.796 164,293.5C 189.656,292.504 212.49,284.004 232.5,268C 244.333,256.167 256.167,244.333 268,232.5C 280.875,216.744 288.875,198.744 292,178.5C 292.102,157.46 291.436,136.46 290,115.5C 297.995,68.6737 325.162,40.3404 371.5,30.5 Z M 355.5,88.5 C 357.927,88.523 360.26,89.023 362.5,90C 370,97.5 377.5,105 385,112.5C 392.167,105.333 399.333,98.1667 406.5,91C 414.909,86.7029 420.243,89.2029 422.5,98.5C 421.946,100.61 421.112,102.61 420,104.5C 412.833,111.667 405.667,118.833 398.5,126C 406,133.5 413.5,141 421,148.5C 423.256,159.91 418.756,164.076 407.5,161C 400.319,153.652 392.986,146.485 385.5,139.5C 377.651,147.183 369.651,154.683 361.5,162C 352,163.167 347.833,159 349,149.5C 356.317,141.349 363.817,133.349 371.5,125.5C 363.817,117.651 356.317,109.651 349,101.5C 347.476,95.2151 349.642,90.8817 355.5,88.5 Z M 84.5,375.5 C 111.835,375.333 139.169,375.5 166.5,376C 174.1,379.132 175.933,384.299 172,391.5C 171.097,392.701 169.931,393.535 168.5,394C 140.167,394.667 111.833,394.667 83.5,394C 77.5333,390.608 76.0333,385.774 79,379.5C 80.8121,378.023 82.6455,376.69 84.5,375.5 Z"/></g>
<g><path style="opacity:0.977" fill="#000000" d="M 374.5,289.5 C 422.25,287.442 455.75,308.109 475,351.5C 489.435,399.732 476.268,438.232 435.5,467C 410.946,481.097 384.946,484.43 357.5,477C 318.621,463.413 296.121,436.246 290,395.5C 287.458,355.753 302.625,324.919 335.5,303C 347.756,295.972 360.756,291.472 374.5,289.5 Z M 342.5,348.5 C 370.835,348.333 399.169,348.5 427.5,349C 433.467,352.392 434.967,357.226 432,363.5C 430.421,365.041 428.587,366.208 426.5,367C 399.167,367.667 371.833,367.667 344.5,367C 336.9,363.868 335.067,358.701 339,351.5C 340.518,350.837 341.685,349.837 342.5,348.5 Z M 342.5,403.5 C 370.835,403.333 399.169,403.5 427.5,404C 433.645,407.535 434.979,412.368 431.5,418.5C 429.869,420.297 427.869,421.464 425.5,422C 398.5,422.667 371.5,422.667 344.5,422C 334.802,416.729 334.135,410.562 342.5,403.5 Z"/></g>
</svg>
