<?xml version="1.0" standalone="no"?>
<!DOCTYPE svg PUBLIC "-//W3C//DTD SVG 20010904//EN">
<svg version="1.0" xmlns="http://www.w3.org/2000/svg"
 width="1200.000000pt" height="1200.000000pt" viewBox="0 0 1200.000000 1200.000000"
 preserveAspectRatio="xMidYMid meet">

<g transform="translate(-100.000000,1320.000000) scale(0.120000,-0.120000)"
fill="#000000" stroke="none">
<path d="M5625 10760 c3 -5 34 -10 68 -9 44 0 56 3 42 9 -29 12 -118 12 -110
0z"/>
<path d="M5993 10763 c9 -2 23 -2 30 0 6 3 -1 5 -18 5 -16 0 -22 -2 -12 -5z"/>
<path d="M5813 10753 c9 -2 23 -2 30 0 6 3 -1 5 -18 5 -16 0 -22 -2 -12 -5z"/>
<path d="M5138 10698 c-43 -23 -76 -43 -74 -45 6 -7 115 38 138 57 43 35 13
29 -64 -12z"/>
<path d="M6095 10731 c29 -11 -62 -19 -305 -27 -113 -4 -213 -11 -223 -16 -10
-5 -71 -18 -135 -28 -242 -38 -368 -63 -540 -107 -165 -42 -187 -45 -319 -47
-79 -1 -145 -5 -149 -8 -3 -4 14 -12 38 -18 23 -7 50 -14 58 -17 8 -3 -52 -25
-135 -50 -208 -62 -307 -103 -302 -123 3 -13 -29 -32 -137 -81 -136 -62 -141
-66 -154 -103 -7 -21 -11 -40 -10 -42 2 -1 64 27 138 64 74 36 143 66 153 67
10 1 30 14 45 28 48 45 220 115 386 158 140 36 102 14 -70 -40 -93 -29 -180
-56 -194 -61 l-25 -8 24 -1 c27 -1 470 124 511 143 31 16 158 39 169 31 9 -5
201 13 230 21 11 4 11 7 0 21 -12 14 -11 15 6 10 11 -3 39 -9 62 -12 44 -7 69
-25 36 -25 -11 0 -24 -5 -30 -11 -8 -8 -74 -13 -186 -16 l-175 -3 -243 -71
c-133 -38 -250 -74 -258 -79 -31 -18 57 -10 176 15 161 35 189 39 113 14 -36
-11 -83 -26 -105 -33 l-40 -13 65 2 c39 2 95 14 139 30 73 27 201 54 251 54
l25 0 -25 -14 c-32 -18 -38 -18 146 5 86 11 159 18 161 16 2 -2 -20 -9 -49
-16 -67 -16 -79 -22 -70 -37 6 -9 17 -10 46 -2 41 11 110 2 85 -11 -8 -5 -66
-13 -129 -19 -109 -11 -176 -25 -193 -41 -4 -3 7 -5 25 -4 25 3 19 -1 -22 -14
-41 -14 -60 -16 -73 -8 -14 9 1 17 85 45 116 39 117 50 2 27 -90 -19 -121 -20
-126 -5 -3 8 -28 3 -77 -15 -41 -15 -79 -25 -85 -23 -6 2 35 19 91 37 56 19
101 36 99 37 -4 4 -168 -37 -246 -61 -33 -10 -40 -15 -25 -18 17 -4 14 -7 -15
-20 -51 -24 -17 -21 85 6 49 13 93 22 97 19 29 -17 -30 -37 -146 -49 -61 -6
-66 -8 -46 -19 22 -12 21 -13 -21 -28 -24 -9 -114 -45 -199 -80 -321 -134
-353 -147 -361 -141 -5 3 -9 0 -9 -6 0 -6 -11 -16 -25 -22 -38 -17 -30 -31 13
-25 36 6 36 6 12 -8 -18 -10 -20 -14 -8 -15 30 0 68 19 63 32 -5 14 -7 13 170
93 76 34 128 52 142 49 11 -3 24 -1 27 4 4 6 -3 8 -16 6 -13 -3 -2 4 24 15 27
12 85 25 130 30 46 6 98 13 117 17 45 9 38 -17 -8 -29 -18 -4 -31 -10 -28 -13
9 -10 126 28 149 47 11 11 33 19 47 19 24 -1 23 -3 -14 -22 -93 -49 -277 -117
-294 -109 -11 7 -38 -1 -89 -24 -40 -19 -70 -29 -66 -23 4 6 -1 8 -12 5 -11
-4 -41 -11 -67 -18 -75 -18 -53 -34 49 -34 49 0 101 3 116 8 21 6 26 4 22 -7
-7 -18 -41 -32 -114 -47 -52 -10 -65 -17 -81 -43 -10 -16 -17 -31 -15 -33 2
-3 130 19 191 32 11 3 14 2 8 -1 -7 -3 -13 -12 -13 -19 0 -7 -12 -16 -27 -19
-93 -23 -104 -28 -102 -44 3 -34 -2 -41 -69 -85 -65 -43 -122 -98 -122 -118 0
-5 1 -9 3 -9 28 0 248 47 326 69 95 28 120 41 121 64 0 15 -64 4 -85 -14 -11
-9 -52 -27 -92 -40 -63 -20 -77 -21 -112 -10 -23 6 -41 17 -41 22 0 6 7 8 16
5 9 -4 57 13 113 40 53 26 112 53 131 60 l35 13 -35 1 c-20 0 -67 -9 -105 -19
-44 -13 -64 -15 -53 -7 26 19 194 62 332 86 223 38 563 47 936 24 90 -6 93 -7
66 -21 -42 -22 -29 -23 49 -4 72 18 88 18 360 -4 50 -4 88 -5 84 -2 -3 4 -30
13 -60 22 l-54 15 70 -4 c82 -5 187 -36 237 -70 22 -15 64 -28 109 -36 164
-26 404 -85 577 -142 101 -33 182 -61 180 -63 -2 -2 -53 12 -113 31 -170 55
-364 103 -543 133 -89 15 -160 29 -158 32 2 2 -35 5 -82 5 -80 1 -83 1 -37 -8
277 -49 361 -66 498 -99 389 -96 756 -245 1073 -436 146 -88 318 -208 380
-265 46 -43 70 -52 34 -13 -44 47 -8 25 103 -62 149 -118 303 -258 352 -321
22 -28 43 -51 48 -51 15 -2 167 -183 167 -200 0 -6 17 -28 38 -50 20 -21 46
-54 57 -73 31 -53 107 -168 111 -168 8 0 -45 108 -84 171 -22 37 -79 117 -126
178 -48 62 -83 117 -80 123 4 6 3 8 -3 5 -6 -4 -35 23 -65 61 -113 138 -273
295 -255 249 5 -12 -11 -4 -45 23 -117 93 -160 125 -314 240 -89 66 -169 120
-178 120 -19 0 -94 48 -86 54 3 3 1 8 -4 13 -5 5 -6 3 -2 -4 10 -18 -6 -16
-30 2 -19 15 -19 15 1 8 18 -6 18 -5 7 10 -15 18 -190 138 -265 182 -26 15
-46 30 -43 32 2 3 28 -11 58 -29 82 -53 87 -53 33 -2 l-50 48 100 -54 c130
-69 340 -195 386 -231 20 -16 40 -29 44 -29 14 0 65 -42 60 -50 -3 -4 2 -11
11 -14 10 -4 13 -2 7 6 -9 16 75 -45 197 -141 138 -108 220 -182 220 -195 0
-7 11 -23 25 -36 14 -13 25 -20 25 -15 0 15 87 -74 169 -171 150 -180 241
-305 284 -389 14 -27 48 -75 76 -104 27 -30 47 -59 45 -63 -3 -5 9 -26 26 -49
24 -29 31 -47 27 -66 -3 -18 3 -39 19 -63 21 -31 71 -141 98 -215 5 -14 9 -16
15 -7 4 7 25 -31 54 -98 39 -93 45 -114 36 -134 -9 -19 -7 -43 6 -103 14 -57
20 -72 24 -55 5 21 10 17 34 -33 48 -98 43 -49 -7 67 -9 20 -12 39 -7 42 11 7
62 -152 100 -314 37 -155 59 -299 70 -455 14 -179 2 -163 -17 25 l-9 85 -3
-80 c-2 -72 -3 -75 -9 -33 -4 26 -11 51 -15 55 -5 4 -6 -7 -3 -24 4 -19 2 -33
-3 -33 -6 0 -10 8 -10 18 0 10 -4 22 -9 28 -6 5 -14 32 -19 59 -16 82 -14 5 3
-120 8 -60 15 -145 15 -188 0 -46 4 -76 9 -72 6 3 14 -3 20 -12 8 -14 10 -2
11 50 0 38 -4 67 -10 67 -6 0 -10 27 -9 63 1 55 2 58 10 27 4 -19 15 -60 25
-90 24 -78 24 -304 -1 -488 -14 -107 -16 -145 -7 -151 9 -5 8 -31 -3 -101 -14
-87 -58 -306 -71 -355 -4 -16 -3 -17 5 -5 6 8 20 58 32 110 12 52 27 102 34
110 17 21 25 58 13 62 -6 2 -4 43 6 108 9 58 21 174 28 257 15 192 34 183 24
-11 -16 -313 -81 -611 -232 -1076 -65 -201 -86 -248 -243 -542 -47 -89 -60
-121 -53 -134 8 -15 15 -8 41 37 17 30 31 61 31 70 0 10 16 41 36 70 20 30 63
105 95 167 32 63 66 123 74 135 26 37 16 -1 -20 -79 -30 -66 -32 -74 -15 -69
18 6 17 0 -11 -67 -150 -360 -397 -749 -629 -988 -35 -36 -62 -70 -61 -76 1
-7 -13 -24 -31 -39 -18 -15 -103 -94 -188 -175 -86 -81 -173 -156 -195 -168
-23 -11 -72 -49 -110 -84 -39 -35 -98 -87 -133 -116 -65 -54 -71 -67 -14 -32
38 23 46 25 36 8 -9 -15 -21 -24 139 101 129 101 165 117 65 29 -146 -127
-393 -298 -430 -298 -23 0 -113 -47 -332 -175 -104 -60 -147 -80 -157 -73 -12
8 -12 10 1 15 52 20 374 190 468 247 169 103 167 126 -5 36 -161 -85 -261
-142 -319 -181 -46 -31 -426 -177 -604 -233 -245 -76 -533 -136 -742 -154 -74
-7 -102 -14 -123 -31 l-28 -21 34 0 c19 0 90 7 158 15 68 9 125 14 127 12 2
-2 -81 -18 -184 -37 -143 -25 -200 -31 -237 -25 l-50 7 53 14 c30 8 61 18 70
23 9 5 -119 11 -324 14 -322 4 -344 6 -439 30 -109 27 -228 45 -167 25 17 -6
32 -15 32 -19 0 -5 15 -9 33 -9 22 0 28 -3 18 -9 -35 -22 297 -60 544 -62 147
-1 154 -2 90 -11 -92 -13 -390 -3 -535 17 -201 28 -570 109 -556 122 3 3 20 0
39 -7 23 -7 47 -8 69 -2 32 8 30 9 -50 31 -45 12 -106 26 -135 31 -97 16 -406
133 -632 240 -60 28 -126 54 -145 56 l-35 4 45 -31 c25 -17 37 -29 28 -26 -9
3 -34 11 -56 16 -21 6 -103 55 -182 109 -106 71 -150 108 -165 135 -12 22 -51
59 -97 92 -84 61 -104 69 -67 28 13 -16 -2 -3 -33 27 -32 30 -58 61 -58 68 0
6 -4 12 -9 12 -5 0 -45 32 -90 70 -44 39 -84 70 -87 70 -4 0 -87 80 -184 177
-167 169 -273 291 -327 376 -13 21 -34 42 -47 48 -12 6 -31 25 -41 42 -10 17
-34 48 -53 69 -67 75 -268 458 -402 768 -35 80 -69 154 -75 165 -7 11 -23 76
-35 144 -13 71 -26 118 -30 110 -5 -7 -11 11 -15 46 -5 33 -15 65 -25 75 -14
14 -18 44 -23 156 -4 76 -13 182 -21 234 -9 52 -21 162 -28 244 -9 121 -14
145 -24 132 -16 -23 -29 233 -20 408 12 229 62 561 87 577 6 3 8 15 5 26 -4
11 2 58 13 104 11 46 18 85 16 87 -9 10 -68 -204 -91 -331 -30 -166 -35 -186
-28 -97 8 96 58 334 104 503 22 81 38 152 35 158 -9 14 -25 1 -25 -21 0 -10
-4 -21 -9 -24 -5 -4 -7 4 -4 16 9 43 -15 -3 -48 -90 -18 -45 -35 -85 -39 -87
-5 -3 0 28 11 68 10 39 19 79 19 87 -1 31 -18 -14 -50 -129 -30 -111 -57 -182
-44 -116 9 44 76 289 81 295 2 2 8 -2 13 -9 6 -10 13 1 24 39 20 67 13 77 -14
19 -23 -50 -22 -41 9 54 22 65 40 93 27 42 -4 -14 -4 -25 -1 -25 7 0 81 150
95 195 7 22 23 66 37 99 27 66 26 88 -2 26 -10 -21 -26 -47 -37 -56 -15 -15
-14 -7 8 42 15 32 28 78 29 102 2 41 -1 38 -64 -82 -36 -69 -67 -124 -68 -122
-4 4 64 166 121 289 50 107 53 129 6 40 -17 -32 -28 -49 -25 -38 19 59 79 212
88 224 6 7 12 20 13 28 6 39 84 182 102 187 27 9 54 53 47 76 -8 24 12 63 70
133 25 32 44 61 40 66 -3 5 0 13 6 17 8 4 9 3 5 -4 -4 -7 -5 -12 -3 -12 6 0
140 169 151 190 8 16 -6 1 -63 -65 -20 -24 -31 -32 -27 -20 9 32 -89 -82 -150
-172 -61 -91 -81 -110 -38 -35 122 210 349 547 369 547 19 0 36 17 31 30 -12
31 200 282 371 441 97 90 136 139 76 95 -47 -33 -642 -634 -663 -668 -10 -17
-28 -36 -38 -42 -11 -6 -43 -40 -72 -76 -30 -36 -60 -65 -67 -65 -23 0 -63
-48 -63 -75 0 -29 -76 -148 -90 -140 -10 6 -103 -115 -168 -221 -55 -89 -145
-265 -156 -304 l-7 -25 21 25 c11 14 45 72 75 130 30 58 61 114 69 125 8 11
-33 -77 -93 -195 -93 -186 -202 -440 -241 -562 -13 -42 -36 -65 -26 -27 19 78
-31 -66 -60 -170 -19 -69 -41 -137 -48 -151 -8 -14 -12 -47 -11 -75 2 -42 -36
-259 -50 -290 -6 -11 1 61 10 115 5 26 4 31 -4 19 -5 -8 -19 -69 -30 -135 -93
-545 -86 -1106 20 -1647 17 -87 28 -161 26 -164 -3 -3 -9 12 -12 33 -3 22 -15
57 -26 80 -10 23 -19 47 -19 54 0 7 -3 11 -6 8 -9 -9 33 -229 72 -376 117
-450 348 -937 601 -1271 45 -60 42 -44 -13 55 -25 46 -43 84 -41 84 3 0 35
-47 71 -104 76 -119 242 -345 334 -455 35 -42 66 -90 72 -112 9 -34 106 -156
116 -146 3 2 -8 26 -22 53 -15 27 -23 45 -17 39 162 -165 283 -298 283 -313 0
-10 26 -40 57 -67 31 -28 53 -43 48 -35 -12 20 4 7 108 -83 86 -74 275 -217
347 -262 l45 -28 -30 33 -30 33 35 -21 c19 -11 78 -46 130 -76 96 -57 109 -68
43 -41 -58 25 -49 11 27 -39 347 -229 893 -428 1450 -530 167 -31 470 -76 506
-76 58 0 10 12 -122 31 -163 23 -371 62 -357 66 6 2 98 -7 204 -21 237 -31
477 -56 535 -56 46 0 54 9 29 33 -12 13 3 15 123 21 188 10 456 33 648 56 89
11 189 20 224 21 47 1 66 6 78 20 17 20 67 26 77 9 9 -14 54 -12 140 7 48 10
71 19 63 24 -10 7 -9 9 4 9 24 0 294 90 416 139 66 27 108 38 118 33 11 -6 -5
-17 -57 -42 -40 -19 -68 -35 -62 -37 31 -11 340 123 526 228 292 165 809 547
1102 815 188 172 408 430 567 664 73 108 99 142 79 102 -7 -12 -10 -31 -6 -41
4 -13 -6 -29 -33 -53 -21 -19 -55 -66 -76 -104 -54 -97 -127 -204 -211 -309
-93 -117 -225 -256 -235 -250 -5 3 -19 -9 -31 -27 l-23 -33 25 21 c13 12 29
20 35 17 12 -4 198 198 309 337 208 260 385 541 540 855 250 509 394 986 497
1645 46 293 17 823 -68 1265 -137 711 -445 1410 -873 1980 -33 44 -58 82 -55
84 2 3 27 -17 55 -45 50 -48 50 -49 29 -12 -60 104 -345 409 -565 605 -148
132 -208 164 -104 55 30 -31 46 -50 37 -43 -12 9 -18 10 -18 2 0 -10 13 -15
31 -13 4 1 15 -8 25 -19 17 -19 17 -20 -2 -13 -15 5 -16 4 -4 -4 8 -6 17 -9
20 -7 13 8 123 -113 115 -126 -5 -7 -4 -10 3 -5 18 11 198 -204 352 -421 101
-140 290 -443 277 -443 -2 0 -21 26 -42 58 -137 207 -370 494 -570 700 -377
390 -874 744 -1338 953 -51 22 -72 36 -64 42 8 6 6 7 -5 3 -10 -3 -80 19 -155
48 -76 30 -174 65 -218 78 -44 14 -145 50 -225 81 -80 30 -215 77 -300 102
-198 60 -196 59 -122 63 72 3 206 -29 339 -83 47 -19 118 -38 170 -45 78 -11
105 -21 230 -84 77 -40 139 -66 135 -58 -6 18 21 10 89 -24 47 -23 47 -23 41
-2 -4 18 -2 19 14 10 10 -6 19 -18 19 -28 0 -11 22 -31 55 -50 62 -37 75 -41
66 -19 -6 16 63 -19 192 -97 39 -24 75 -38 96 -38 18 0 39 -7 46 -15 8 -9 21
-13 32 -9 13 4 49 -16 119 -65 55 -39 105 -71 112 -71 6 0 -14 23 -44 51 -53
49 -53 50 -14 28 146 -83 344 -221 490 -341 37 -32 40 -25 6 16 -14 18 -13 18
15 -1 16 -12 42 -25 57 -28 31 -8 32 -12 13 -34 -13 -15 -3 -27 98 -114 109
-94 312 -295 391 -387 24 -29 32 -34 20 -15 -30 50 -139 187 -236 297 -82 93
-76 88 63 -52 84 -85 191 -203 237 -263 45 -59 85 -107 87 -107 3 0 -5 18 -17
40 -22 39 -22 41 -4 54 17 12 15 18 -42 100 -64 92 -190 212 -233 222 -15 4
-47 34 -80 75 -54 68 -124 124 -230 188 -30 18 -65 48 -77 66 -13 19 -55 56
-95 83 -40 27 -147 105 -238 172 -478 354 -808 533 -1220 660 -371 114 -738
178 -1149 200 -113 6 -227 15 -254 21 -58 11 -70 11 -42 0z m300 -65 c55 -9
113 -19 130 -22 27 -6 28 -5 16 10 -12 14 -10 15 20 10 45 -8 310 -96 305
-101 -2 -2 -57 12 -121 32 -65 19 -120 33 -123 30 -3 -3 0 -5 7 -5 7 0 9 -4 6
-10 -3 -6 1 -7 9 -4 9 3 16 2 16 -4 0 -5 24 -13 53 -18 38 -6 45 -9 25 -11
-15 -3 -115 17 -223 42 -108 26 -199 45 -201 42 -2 -2 60 -20 138 -40 210 -54
208 -66 -6 -36 -56 8 -72 7 -84 -4 -12 -12 -7 -15 33 -21 26 -4 64 -5 85 -1
24 4 41 2 45 -5 4 -6 5 -13 3 -16 -10 -9 -316 17 -358 31 l-45 15 71 -5 c48
-3 83 0 104 9 31 13 31 13 -47 20 -43 3 -172 9 -288 13 -115 4 -196 10 -180
14 30 7 30 7 -7 8 -20 0 -40 -4 -43 -9 -4 -7 -26 -8 -57 -4 -34 5 -52 3 -57
-5 -5 -8 -33 -9 -97 -4 l-89 7 95 19 c185 35 325 46 550 42 123 -2 258 -10
315 -19z m463 -38 c29 -13 53 -17 76 -13 64 12 427 -72 675 -157 184 -62 300
-112 483 -205 196 -100 218 -120 38 -34 -80 38 -162 76 -184 85 -35 15 -37 15
-25 0 15 -18 18 -19 -147 55 -51 23 -100 41 -109 41 -10 0 -79 20 -154 44
-181 58 -322 92 -458 110 -62 8 -126 21 -143 29 -16 9 -44 18 -62 22 -67 12
-123 28 -133 37 -6 6 -3 6 9 2 14 -5 17 -4 12 5 -11 17 67 4 122 -21z m-763
-38 c3 -5 -1 -10 -9 -10 -8 0 -18 5 -21 10 -3 6 1 10 9 10 8 0 18 -4 21 -10z
m-1378 -176 c-3 -3 -12 -4 -19 -1 -8 3 -5 6 6 6 11 1 17 -2 13 -5z m-40 -10
c-3 -3 -12 -4 -19 -1 -8 3 -5 6 6 6 11 1 17 -2 13 -5z m70 -70 c-3 -3 -12 -4
-19 -1 -8 3 -5 6 6 6 11 1 17 -2 13 -5z m488 -94 c-17 -6 -14 -8 15 -12 19 -3
-20 -6 -87 -6 -72 -1 -123 2 -123 8 0 9 58 15 165 17 35 1 44 -1 30 -7z m831
-142 c60 -7 91 -15 85 -21 -5 -5 -27 -8 -49 -5 -22 2 -38 0 -36 -4 3 -5 -4 -8
-15 -8 -12 0 -21 4 -21 8 0 11 -63 31 -110 35 -32 3 -31 4 8 5 24 1 86 -3 138
-10z m170 -48 c20 0 42 -6 49 -14 8 -8 48 -16 97 -20 122 -10 168 -17 163 -26
-3 -4 25 -15 63 -23 87 -20 175 -53 204 -77 l23 -19 -32 12 c-18 6 -33 14 -33
18 0 4 -26 10 -57 14 -32 4 -63 11 -70 17 -7 5 -26 7 -44 3 -29 -7 -30 -8 -13
-17 10 -6 33 -24 50 -39 32 -31 105 -72 112 -64 3 3 0 5 -7 5 -7 0 -9 5 -6 10
9 15 34 12 51 -5 17 -16 39 -21 29 -6 -3 6 10 8 32 5 21 -2 -9 9 -66 26 -58
16 -112 37 -120 46 -15 15 -12 16 34 9 27 -4 71 -18 97 -31 26 -13 58 -24 71
-24 65 0 576 -197 607 -235 17 -21 7 -19 -50 10 -89 45 -250 98 -250 82 0 -2
38 -19 85 -37 47 -18 84 -34 82 -36 -1 -2 -43 10 -93 25 -50 16 -144 41 -210
56 -65 15 -162 40 -214 57 -52 16 -171 49 -264 73 -93 23 -163 45 -157 49 11
7 48 2 96 -11 17 -5 18 -4 7 10 -7 9 -27 19 -43 22 -16 4 -29 11 -29 16 0 12
3 12 36 -6 33 -17 58 -20 49 -5 -3 6 4 10 17 10 13 0 32 7 42 15 19 14 17 15
-20 16 -93 3 -117 7 -274 43 -161 37 -192 46 -156 46 10 0 24 7 32 15 14 13
17 13 30 0 9 -8 31 -15 50 -15z m2214 -55 c0 -3 -18 4 -40 15 -22 11 -40 23
-40 25 0 3 18 -4 40 -15 22 -11 40 -23 40 -25z m70 -41 c0 -2 -13 2 -30 11
-16 9 -30 18 -30 21 0 2 14 -2 30 -11 17 -9 30 -18 30 -21z m50 -30 c0 -2 -9
0 -20 6 -11 6 -20 13 -20 16 0 2 9 0 20 -6 11 -6 20 -13 20 -16z m-2620 -103
c-8 -5 -53 -5 -100 -1 l-85 7 100 1 c60 1 94 -2 85 -7z m1118 -172 c59 -23
162 -68 229 -99 69 -33 124 -53 126 -47 2 7 9 7 23 -1 10 -6 15 -12 9 -12 -5
0 6 -14 25 -30 28 -23 15 -19 -70 25 -121 61 -266 124 -395 171 -49 18 -82 33
-72 34 10 0 67 -19 125 -41z m1932 -66 c0 -2 -18 10 -40 27 -22 17 -40 34 -40
37 0 2 18 -10 40 -27 22 -17 40 -34 40 -37z m-1425 -24 c4 -6 5 -13 2 -16 -8
-7 -47 7 -47 18 0 13 37 11 45 -2z m152 -95 c54 -31 148 -92 210 -135 62 -44
118 -79 124 -79 27 0 449 -336 449 -357 0 -17 2 -18 -70 39 -25 19 -94 69
-155 110 -60 41 -189 132 -286 204 -260 191 -268 196 -320 229 -50 31 -67 45
-56 45 3 0 50 -25 104 -56z m-242 -66 c21 -10 36 -38 19 -38 -13 0 -42 21 -48
35 -7 18 -4 18 29 3z m269 -147 c43 -27 81 -53 84 -57 11 -12 -152 78 -168 92
-30 29 9 12 84 -35z m987 -578 c13 -16 12 -17 -3 -4 -10 7 -18 15 -18 17 0 8
8 3 21 -13z m-6391 -113 c-12 -16 -24 -30 -26 -30 -3 0 4 14 16 30 12 17 24
30 26 30 3 0 -4 -13 -16 -30z m6680 -210 c6 -11 8 -20 6 -20 -3 0 -10 9 -16
20 -6 11 -8 20 -6 20 3 0 10 -9 16 -20z m-7214 -869 c-28 -70 -52 -127 -54
-126 -11 10 86 255 101 255 3 0 -18 -58 -47 -129z m15 -28 c-12 -20 -14 -14
-5 12 4 9 9 14 11 11 3 -2 0 -13 -6 -23z m-92 -1955 c5 -13 15 -66 21 -118 30
-244 114 -615 174 -769 19 -47 58 -140 89 -206 30 -66 73 -163 96 -215 135
-310 358 -645 633 -947 99 -109 283 -287 290 -282 8 6 48 -23 43 -30 -9 -16
174 -182 350 -316 109 -83 122 -95 70 -65 -71 42 -238 157 -310 215 -320 256
-562 529 -862 976 -136 203 -183 286 -263 464 -34 77 -76 167 -93 200 -16 33
-31 71 -32 85 -2 14 -28 100 -59 191 -65 193 -116 396 -145 571 -28 173 -36
268 -22 268 6 0 15 -10 20 -22z m8748 -340 c-3 -7 -5 -2 -5 12 0 14 2 19 5 13
2 -7 2 -19 0 -25z m-10 -60 c-3 -7 -5 -2 -5 12 0 14 2 19 5 13 2 -7 2 -19 0
-25z m-10 -50 c-3 -7 -5 -2 -5 12 0 14 2 19 5 13 2 -7 2 -19 0 -25z m-10 -50
c-3 -7 -5 -2 -5 12 0 14 2 19 5 13 2 -7 2 -19 0 -25z m-10 -50 c-3 -7 -5 -2
-5 12 0 14 2 19 5 13 2 -7 2 -19 0 -25z m-13 -62 c-3 -21 -8 -35 -11 -32 -2 2
-1 20 3 40 3 21 8 35 11 32 2 -2 1 -20 -3 -40z m-17 -68 c-3 -8 -6 -5 -6 6 -1
11 2 17 5 13 3 -3 4 -12 1 -19z m-32 -125 c-42 -155 -112 -365 -176 -528 -66
-168 -263 -569 -311 -636 -60 -83 -39 -21 38 112 180 312 344 704 434 1036 19
68 35 121 38 119 2 -2 -8 -49 -23 -103z m-8815 -408 c17 -44 45 -111 62 -148
16 -38 28 -71 25 -73 -10 -10 -152 339 -201 494 -44 140 -28 115 28 -43 30
-82 68 -186 86 -230z m8044 341 c-6 -14 -33 -30 -41 -23 -9 10 11 37 28 37 12
0 16 -5 13 -14z m-338 -538 c-9 -12 -16 -19 -16 -15 0 11 24 47 28 42 2 -2 -3
-14 -12 -27z m-7552 -155 c9 -18 14 -33 12 -33 -6 0 -36 55 -36 66 0 11 5 3
24 -33z m81 -153 c14 -27 23 -50 20 -50 -2 0 -16 23 -30 50 -14 28 -23 50 -20
50 2 0 16 -22 30 -50z m53 -105 c-3 -3 -9 2 -12 12 -6 14 -5 15 5 6 7 -7 10
-15 7 -18z m52 -85 c6 -11 8 -20 6 -20 -3 0 -10 9 -16 20 -6 11 -8 20 -6 20 3
0 10 -9 16 -20z m2374 -1411 c31 -11 60 -18 65 -15 5 3 17 3 26 0 14 -6 15 -8
3 -15 -13 -7 -171 31 -185 45 -14 13 39 5 91 -15z m176 -51 c10 -6 7 -7 -10
-2 -14 3 -32 11 -40 16 -10 6 -7 7 10 2 14 -3 32 -11 40 -16z m128 -43 c37
-13 62 -24 56 -24 -14 -1 -155 47 -163 55 -7 7 15 1 107 -31z m2311 -35 c-9
-5 -60 -26 -115 -45 -84 -31 -114 -37 -199 -40 l-100 -3 136 28 c74 15 166 37
205 48 77 23 97 26 73 12z m-2164 -10 c13 -5 14 -9 5 -9 -8 0 -24 4 -35 9 -13
5 -14 9 -5 9 8 0 24 -4 35 -9z m1738 -87 c-7 -2 -21 -2 -30 0 -10 3 -4 5 12 5
17 0 24 -2 18 -5z"/>
<path d="M7760 10387 c8 -8 26 -18 40 -22 32 -9 25 -2 -20 20 -27 13 -32 14
-20 2z"/>
<path d="M6460 9990 c8 -5 20 -10 25 -10 6 0 3 5 -5 10 -8 5 -19 10 -25 10 -5
0 -3 -5 5 -10z"/>
<path d="M6528 9893 c7 -3 16 -2 19 1 4 3 -2 6 -13 5 -11 0 -14 -3 -6 -6z"/>
<path d="M6922 9778 c3 -7 25 -16 50 -20 26 -3 57 -9 70 -12 12 -3 1 5 -27 18
-55 27 -99 33 -93 14z"/>
<path d="M5467 10702 c-26 -2 -45 -7 -42 -13 8 -12 105 -12 105 0 0 14 -10 16
-63 13z"/>
<path d="M8130 10299 c247 -128 454 -244 590 -333 52 -34 109 -67 125 -74 28
-12 27 -10 -10 22 -80 69 -857 495 -905 496 -8 0 82 -50 200 -111z"/>
<path d="M7395 10311 c3 -5 22 -15 43 -22 20 -6 72 -27 115 -46 44 -19 81 -33
83 -31 2 3 -45 28 -104 56 -100 49 -151 64 -137 43z"/>
<path d="M7408 10273 c7 -3 16 -2 19 1 4 3 -2 6 -13 5 -11 0 -14 -3 -6 -6z"/>
<path d="M3963 10259 c-18 -5 -35 -14 -39 -20 -4 -8 1 -9 17 -4 45 14 69 25
69 30 0 6 -7 5 -47 -6z"/>
<path d="M7756 10165 c-3 -9 3 -19 17 -25 21 -11 21 -11 3 4 -23 18 -10 21 31
6 l28 -10 -25 20 c-30 24 -46 25 -54 5z"/>
<path d="M8355 10157 c3 -7 20 -18 38 -25 30 -11 31 -10 12 4 -36 28 -55 36
-50 21z"/>
<path d="M4293 10150 c-13 -5 -23 -11 -23 -14 0 -7 40 6 46 15 6 10 6 10 -23
-1z"/>
<path d="M3940 10090 c0 -13 20 -13 40 0 12 8 9 10 -12 10 -16 0 -28 -4 -28
-10z"/>
<path d="M4050 10055 c-30 -7 -87 -14 -125 -14 -71 -1 -71 -1 -118 -49 -26
-26 -47 -55 -47 -64 0 -10 -17 -29 -37 -43 -21 -14 -31 -25 -23 -25 13 0 13
-2 0 -10 -11 -7 -7 -10 18 -10 29 0 207 68 199 76 -2 2 -39 -7 -82 -21 -44
-13 -80 -23 -82 -21 -2 1 27 15 63 29 76 32 326 168 304 166 -8 -1 -40 -7 -70
-14z"/>
<path d="M4433 10035 c-42 -18 -45 -38 -4 -24 29 10 63 39 45 39 -5 -1 -24 -7
-41 -15z"/>
<path d="M8905 9853 c6 -6 42 -31 80 -57 54 -37 62 -40 32 -14 -33 29 -137 95
-112 71z"/>
<path d="M4068 9843 c6 -2 18 -2 25 0 6 3 1 5 -13 5 -14 0 -19 -2 -12 -5z"/>
<path d="M4173 9823 c-40 -13 -73 -29 -73 -34 0 -13 1 -13 87 22 120 47 110
55 -14 12z"/>
<path d="M3654 9798 l-19 -21 28 18 c28 18 33 25 19 25 -5 0 -17 -10 -28 -22z"/>
<path d="M3970 9816 c0 -2 7 -6 15 -10 8 -3 15 -1 15 4 0 6 -7 10 -15 10 -8 0
-15 -2 -15 -4z"/>
<path d="M8956 9777 c3 -10 21 -25 38 -34 17 -8 27 -11 21 -6 -64 56 -66 57
-59 40z"/>
<path d="M5435 9760 c-4 -6 6 -10 24 -10 16 0 33 5 36 10 4 6 -6 10 -24 10
-16 0 -33 -4 -36 -10z"/>
<path d="M3480 9740 c-14 -11 -20 -20 -14 -20 6 0 19 9 29 20 23 25 17 25 -15
0z"/>
<path d="M3600 9740 c-8 -5 -12 -12 -9 -15 4 -3 12 1 19 10 14 17 11 19 -10 5z"/>
<path d="M3520 9688 c0 -20 1 -21 20 -3 11 10 20 20 20 22 0 1 -9 3 -20 3 -14
0 -20 -7 -20 -22z"/>
<path d="M3708 9683 c-45 -13 -65 -33 -34 -33 15 0 86 38 86 46 0 2 -1 4 -2 3
-2 -1 -24 -8 -50 -16z"/>
<path d="M9120 9691 c0 -5 26 -28 58 -52 31 -24 113 -90 182 -147 l125 -103
-85 82 c-85 82 -261 229 -273 229 -4 0 -7 -4 -7 -9z"/>
<path d="M3183 9642 c-32 -27 -65 -57 -73 -67 -28 -35 21 -1 85 59 74 68 67
73 -12 8z"/>
<path d="M6103 9683 c9 -2 25 -2 35 0 9 3 1 5 -18 5 -19 0 -27 -2 -17 -5z"/>
<path d="M8796 9617 c33 -24 89 -71 127 -105 37 -34 71 -62 74 -62 20 0 -167
173 -206 190 -61 28 -61 26 5 -23z"/>
<path d="M3530 9596 c-19 -13 -114 -75 -210 -139 -96 -64 -188 -128 -205 -142
l-30 -27 29 17 c21 13 31 15 34 6 2 -6 8 -8 14 -5 7 4 7 9 -1 13 -13 9 275
189 391 244 48 23 87 45 88 50 0 16 -77 4 -110 -17z"/>
<path d="M6125 9599 c55 -5 163 -13 240 -19 77 -6 181 -18 232 -26 119 -20
139 -13 43 16 -113 34 -176 40 -405 38 -190 -1 -200 -2 -110 -9z"/>
<path d="M5878 9593 c6 -2 18 -2 25 0 6 3 1 5 -13 5 -14 0 -19 -2 -12 -5z"/>
<path d="M3335 9560 c-3 -5 -2 -10 4 -10 5 0 13 5 16 10 3 6 2 10 -4 10 -5 0
-13 -4 -16 -10z"/>
<path d="M3108 9499 c-73 -48 -60 -64 17 -21 35 20 65 40 65 45 0 16 -38 5
-82 -24z"/>
<path d="M6657 9521 c-23 -9 72 -32 233 -57 63 -10 117 -22 118 -26 11 -25
373 -170 388 -156 8 8 -242 115 -311 133 -38 10 -64 20 -57 23 7 2 33 -1 57
-7 24 -6 56 -11 72 -11 75 1 -81 44 -287 79 -159 27 -192 30 -213 22z"/>
<path d="M9270 9527 c0 -2 15 -14 33 -27 20 -15 27 -17 18 -6 -13 16 -51 41
-51 33z"/>
<path d="M3246 9474 c-3 -8 -2 -13 3 -9 5 3 11 0 13 -6 2 -6 12 0 23 13 11 13
13 17 5 11 -17 -15 -34 -17 -25 -3 3 6 2 10 -3 10 -6 0 -13 -7 -16 -16z"/>
<path d="M3502 9421 c-34 -21 -66 -42 -70 -46 -10 -12 94 47 121 67 37 29 16
20 -51 -21z"/>
<path d="M2879 9401 c-13 -11 -21 -22 -18 -25 3 -3 16 5 29 19 28 30 22 33
-11 6z"/>
<path d="M2991 9406 c-13 -7 -19 -16 -14 -19 6 -4 18 2 28 13 21 23 19 24 -14
6z"/>
<path d="M2714 9329 c-19 -22 -19 -22 3 -10 24 12 39 31 25 31 -5 0 -17 -10
-28 -21z"/>
<path d="M3368 9333 c7 -3 16 -2 19 1 4 3 -2 6 -13 5 -11 0 -14 -3 -6 -6z"/>
<path d="M9300 9276 c0 -2 7 -7 16 -10 8 -3 12 -2 9 4 -6 10 -25 14 -25 6z"/>
<path d="M7510 9241 c0 -10 45 -41 60 -41 20 0 9 20 -20 35 -34 17 -40 18 -40
6z"/>
<path d="M2804 9187 l-39 -42 40 35 c22 19 42 36 44 38 2 1 2 4 0 7 -3 2 -23
-14 -45 -38z"/>
<path d="M3020 9215 c0 -8 2 -15 4 -15 2 0 6 7 10 15 3 8 1 15 -4 15 -6 0 -10
-7 -10 -15z"/>
<path d="M7601 9186 c2 -2 49 -30 104 -61 204 -118 438 -282 630 -444 154
-130 382 -359 415 -417 30 -53 51 -75 30 -31 -17 35 108 -103 201 -223 46 -60
90 -111 97 -114 23 -10 -18 49 -126 181 -230 283 -437 493 -672 682 -58 47
-105 89 -105 95 0 11 -184 176 -197 176 -22 0 1 -24 87 -90 109 -82 122 -107
18 -32 -144 103 -445 282 -474 282 -7 0 -10 -2 -8 -4z"/>
<path d="M2608 9163 c-15 -18 -31 -53 -23 -53 2 0 13 14 25 31 24 33 22 50 -2
22z"/>
<path d="M2293 9013 c-267 -292 -444 -533 -593 -808 -59 -110 -42 -89 93 117
136 207 273 390 455 610 72 87 133 162 137 168 17 27 -10 2 -92 -87z"/>
<path d="M3019 9073 c-67 -72 -131 -152 -127 -162 1 -5 33 25 69 67 95 111
136 177 58 95z"/>
<path d="M2520 9080 c0 -5 7 -7 15 -4 8 4 15 8 15 10 0 2 -7 4 -15 4 -8 0 -15
-4 -15 -10z"/>
<path d="M3128 8941 c-40 -33 -107 -95 -148 -138 -73 -76 -74 -77 -10 -17 36
34 101 92 145 129 101 85 100 85 93 85 -4 0 -40 -27 -80 -59z"/>
<path d="M9862 8930 c7 -11 18 -22 26 -25 8 -3 6 4 -5 20 -21 29 -38 34 -21 5z"/>
<path d="M8290 8921 c0 -6 4 -13 10 -16 6 -3 7 1 4 9 -7 18 -14 21 -14 7z"/>
<path d="M9770 8892 c0 -4 22 -33 48 -63 27 -29 72 -88 100 -130 28 -42 58
-79 67 -83 11 -4 14 -2 9 7 -23 39 -77 113 -138 190 -64 80 -86 100 -86 79z"/>
<path d="M8340 8881 c0 -5 7 -15 17 -22 15 -13 15 -12 4 9 -12 23 -21 28 -21
13z"/>
<path d="M2865 8860 c-10 -11 -13 -20 -7 -20 6 0 16 9 22 20 6 11 9 20 7 20
-2 0 -12 -9 -22 -20z"/>
<path d="M10004 8743 c26 -35 49 -63 52 -63 11 0 -33 63 -65 93 -30 28 -28 24
13 -30z"/>
<path d="M2425 8700 c-16 -16 -26 -32 -23 -35 3 -3 17 10 32 30 33 43 29 45
-9 5z"/>
<path d="M8420 8696 c0 -2 8 -10 18 -17 15 -13 16 -12 3 4 -13 16 -21 21 -21
13z"/>
<path d="M2823 8639 c-18 -16 -33 -33 -33 -36 0 -4 16 8 35 27 32 31 39 40 33
40 -2 0 -18 -14 -35 -31z"/>
<path d="M9842 8591 c12 -22 24 -38 26 -36 5 4 -37 75 -44 75 -3 0 6 -18 18
-39z"/>
<path d="M10036 8592 c-6 -10 120 -214 140 -225 14 -8 14 -6 4 15 -19 37 -131
218 -135 218 -2 0 -6 -3 -9 -8z"/>
<path d="M2550 8485 c-7 -8 -8 -15 -2 -15 5 0 15 7 22 15 7 8 8 15 2 15 -5 0
-15 -7 -22 -15z"/>
<path d="M10210 8440 c11 -22 23 -40 25 -40 3 0 -4 18 -15 40 -11 22 -23 40
-25 40 -3 0 4 -18 15 -40z"/>
<path d="M2398 8453 c-8 -10 -28 -39 -43 -66 -15 -26 -45 -69 -66 -95 -21 -25
-39 -53 -39 -60 0 -8 -11 -27 -25 -44 -14 -16 -25 -38 -25 -49 0 -11 -4 -18
-9 -14 -8 5 -31 -21 -56 -64 -15 -25 53 28 75 58 23 33 210 351 206 351 -2 0
-10 -8 -18 -17z m-218 -353 c-6 -11 -13 -20 -16 -20 -2 0 0 9 6 20 6 11 13 20
16 20 2 0 0 -9 -6 -20z"/>
<path d="M10192 8270 c3 -8 13 -38 22 -66 9 -29 26 -60 37 -70 15 -13 11 0
-17 62 -33 72 -55 111 -42 74z"/>
<path d="M2189 8193 c-29 -43 -45 -71 -35 -63 24 19 99 130 93 137 -3 2 -29
-31 -58 -74z"/>
<path d="M10192 8170 c42 -103 124 -264 113 -220 -14 54 -128 309 -140 314 -8
3 4 -37 27 -94z"/>
<path d="M10263 8200 c3 -14 9 -45 13 -70 4 -25 29 -89 55 -142 45 -89 64
-116 74 -106 5 4 -133 329 -142 338 -3 3 -3 -6 0 -20z"/>
<path d="M10312 8176 c13 -19 24 -33 26 -31 6 6 -28 65 -38 65 -6 0 0 -15 12
-34z"/>
<path d="M2447 8103 c-4 -3 -7 -11 -7 -17 0 -6 5 -5 12 2 6 6 9 14 7 17 -3 3
-9 2 -12 -2z"/>
<path d="M1702 7978 c-18 -33 -31 -62 -29 -64 1 -2 18 24 36 57 18 33 31 62
30 64 -2 2 -19 -24 -37 -57z"/>
<path d="M2104 7998 c-10 -18 -19 -57 -20 -87 -3 -52 -2 -53 13 -31 9 12 26
42 39 66 19 36 21 44 8 44 -12 0 -13 4 -4 20 9 16 8 20 -4 20 -9 0 -23 -15
-32 -32z"/>
<path d="M10410 8011 c18 -35 70 -116 70 -109 0 18 -43 97 -61 114 l-22 19 13
-24z"/>
<path d="M2065 7994 c-9 -15 -12 -23 -6 -20 11 7 35 46 28 46 -3 0 -12 -12
-22 -26z"/>
<path d="M2021 7913 c-10 -26 -10 -27 4 -9 8 11 15 23 15 28 0 15 -7 8 -19
-19z"/>
<path d="M9187 7874 c3 -21 33 -86 66 -144 60 -104 94 -155 63 -93 -9 18 -16
37 -16 44 0 13 -82 180 -105 212 -13 19 -14 17 -8 -19z"/>
<path d="M2277 7813 c-15 -25 -26 -50 -24 -57 2 -6 16 13 31 42 34 67 30 76
-7 15z"/>
<path d="M9140 7807 c0 -17 33 -87 41 -87 5 0 0 19 -12 43 -23 45 -29 54 -29
44z"/>
<path d="M1442 7693 c-68 -161 -73 -173 -64 -173 9 0 115 260 109 266 -2 2
-22 -40 -45 -93z"/>
<path d="M1999 7773 c-13 -16 -12 -17 4 -4 9 7 17 15 17 17 0 8 -8 3 -21 -13z"/>
<path d="M9101 7713 c42 -96 48 -108 49 -95 0 18 -54 142 -62 142 -4 0 2 -21
13 -47z"/>
<path d="M10520 7743 c1 -5 12 -28 26 -53 26 -46 27 -42 3 23 -11 32 -30 51
-29 30z"/>
<path d="M9210 7735 c0 -5 5 -17 10 -25 5 -8 10 -10 10 -5 0 6 -5 17 -10 25
-5 8 -10 11 -10 5z"/>
<path d="M2246 7703 c-6 -14 -5 -15 5 -6 7 7 10 15 7 18 -3 3 -9 -2 -12 -12z"/>
<path d="M9206 7687 c3 -10 9 -15 12 -12 3 3 0 11 -7 18 -10 9 -11 8 -5 -6z"/>
<path d="M9257 7613 c-3 -4 15 -46 39 -93 51 -101 56 -98 13 8 -34 82 -44 99
-52 85z"/>
<path d="M2140 7508 c-45 -105 -52 -123 -40 -112 13 13 72 155 67 161 -3 2
-15 -20 -27 -49z"/>
<path d="M9350 7549 c0 -8 7 -24 15 -35 18 -24 19 -7 0 26 -9 16 -14 19 -15 9z"/>
<path d="M2091 7534 c0 -11 3 -14 6 -6 3 7 2 16 -1 19 -3 4 -6 -2 -5 -13z"/>
<path d="M2000 7480 c-6 -11 -18 -20 -26 -20 -23 0 -136 -262 -120 -278 11
-10 66 85 112 194 48 115 60 153 34 104z"/>
<path d="M2060 7468 c-12 -22 -12 -22 6 -6 10 10 15 20 12 24 -4 3 -12 -5 -18
-18z"/>
<path d="M9456 7445 c4 -16 13 -46 20 -65 l13 -35 0 40 c0 26 -7 49 -19 65
l-21 25 7 -30z"/>
<path d="M10502 7440 c0 -14 2 -19 5 -12 2 6 2 18 0 25 -3 6 -5 1 -5 -13z"/>
<path d="M9412 7396 c12 -25 23 -44 25 -42 6 6 -24 73 -36 81 -6 3 -1 -14 11
-39z"/>
<path d="M2022 7375 c-17 -37 -14 -45 4 -12 9 16 14 31 11 33 -2 2 -9 -7 -15
-21z"/>
<path d="M1990 7370 c-6 -12 -9 -24 -7 -27 3 -2 11 5 17 17 6 12 9 24 7 27 -3
2 -11 -5 -17 -17z"/>
<path d="M2052 7276 c-12 -32 -20 -61 -17 -64 7 -7 46 89 43 107 -2 9 -13 -11
-26 -43z"/>
<path d="M9396 7305 c3 -16 9 -32 13 -35 4 -3 17 -41 28 -85 14 -53 21 -70 22
-49 1 37 -26 133 -44 154 -7 8 -15 22 -19 30 -3 8 -3 2 0 -15z"/>
<path d="M1291 7269 c-6 -18 -9 -34 -7 -36 2 -2 9 10 15 28 6 18 9 34 7 36 -2
2 -9 -10 -15 -28z"/>
<path d="M9473 7290 c2 -8 7 -25 11 -37 4 -14 3 -23 -3 -23 -6 0 -2 -20 9 -46
11 -25 27 -70 36 -101 11 -39 19 -52 27 -44 12 12 -48 222 -71 250 -11 13 -13
13 -9 1z"/>
<path d="M10524 7128 c3 -15 17 -80 31 -145 31 -145 37 -158 29 -70 -7 85 -38
215 -54 230 -10 10 -11 6 -6 -15z"/>
<path d="M1997 7110 c-3 -11 -1 -20 4 -20 5 0 9 9 9 20 0 11 -2 20 -4 20 -2 0
-6 -9 -9 -20z"/>
<path d="M1906 7063 c-6 -14 -5 -15 5 -6 7 7 10 15 7 18 -3 3 -9 -2 -12 -12z"/>
<path d="M9600 7031 c0 -6 5 -13 10 -16 6 -3 10 1 10 9 0 9 -4 16 -10 16 -5 0
-10 -4 -10 -9z"/>
<path d="M1880 7000 c-6 -12 -9 -24 -7 -27 3 -2 11 5 17 17 6 12 9 24 7 27 -3
2 -11 -5 -17 -17z"/>
<path d="M1960 6973 c-20 -74 -59 -239 -65 -278 -18 -114 45 106 80 283 9 44
-2 41 -15 -5z"/>
<path d="M9509 6965 c-7 -6 5 -73 15 -82 8 -8 6 35 -3 65 -3 13 -9 21 -12 17z"/>
<path d="M1360 6956 c0 -2 7 -9 15 -16 12 -10 15 -10 15 4 0 9 -7 16 -15 16
-8 0 -15 -2 -15 -4z"/>
<path d="M9642 6875 c-1 -73 29 -251 42 -247 5 2 13 -2 17 -10 7 -10 9 -9 9 5
0 9 -6 17 -14 17 -9 0 -15 15 -18 43 -5 49 -3 54 15 39 11 -10 12 -2 3 45 -7
39 -12 50 -17 37 -4 -14 -9 -3 -17 36 -6 30 -13 64 -15 75 -3 11 -5 -7 -5 -40z"/>
<path d="M9571 6913 c0 -4 4 -17 9 -28 8 -19 9 -19 9 2 1 12 -3 25 -9 28 -5 3
-10 3 -9 -2z"/>
<path d="M1180 6785 c-6 -31 -10 -59 -7 -61 2 -2 9 21 16 52 6 32 9 59 7 61
-2 3 -10 -21 -16 -52z"/>
<path d="M9590 6833 c0 -4 5 -15 10 -23 8 -13 10 -13 10 2 0 9 -4 20 -10 23
-5 3 -10 3 -10 -2z"/>
<path d="M9622 6700 c0 -19 2 -27 5 -17 2 9 2 25 0 35 -3 9 -5 1 -5 -18z"/>
<path d="M1256 6491 c-4 -35 -5 -65 -2 -68 6 -7 19 103 14 119 -3 7 -8 -16
-12 -51z"/>
<path d="M1872 6515 c0 -16 2 -22 5 -12 2 9 2 23 0 30 -3 6 -5 -1 -5 -18z"/>
<path d="M1228 6190 c-4 -14 -7 -43 -7 -65 l1 -40 9 34 c6 18 9 47 7 65 -3 30
-3 30 -10 6z"/>
<path d="M1216 5910 c-4 -41 -6 -93 -4 -115 l3 -40 14 27 c11 21 12 46 4 115
l-9 88 -8 -75z"/>
<path d="M9667 5936 c-11 -27 -8 -52 6 -64 10 -9 12 -3 9 26 -5 52 -7 58 -15
38z"/>
<path d="M9702 5910 c0 -14 2 -19 5 -12 2 6 2 18 0 25 -3 6 -5 1 -5 -13z"/>
<path d="M9673 5760 c0 -36 2 -50 4 -32 2 17 2 47 0 65 -2 17 -4 3 -4 -33z"/>
<path d="M9701 5774 c0 -11 3 -14 6 -6 3 7 2 16 -1 19 -3 4 -6 -2 -5 -13z"/>
<path d="M9691 5734 c0 -11 3 -14 6 -6 3 7 2 16 -1 19 -3 4 -6 -2 -5 -13z"/>
<path d="M9660 5615 c-7 -9 -10 -18 -7 -21 3 -3 10 4 17 15 13 25 8 27 -10 6z"/>
<path d="M1242 5520 c0 -14 2 -19 5 -12 2 6 2 18 0 25 -3 6 -5 1 -5 -13z"/>
<path d="M9645 5509 c-4 -6 -5 -12 -2 -15 2 -3 7 2 10 11 7 17 1 20 -8 4z"/>
<path d="M9622 5385 c0 -16 2 -22 5 -12 2 9 2 23 0 30 -3 6 -5 -1 -5 -18z"/>
<path d="M9591 5230 c-1 -8 -4 -26 -7 -40 -5 -22 -4 -23 6 -7 6 10 9 28 7 40
-2 12 -5 15 -6 7z"/>
<path d="M9557 5093 c-10 -19 -18 -67 -9 -58 10 11 25 65 18 65 -3 0 -7 -3 -9
-7z"/>
<path d="M9522 4971 c-14 -46 -15 -74 -3 -66 11 6 26 93 19 101 -3 2 -10 -13
-16 -35z"/>
<path d="M1957 4932 c3 -12 9 -25 14 -28 14 -8 11 10 -6 32 -13 18 -14 18 -8
-4z"/>
<path d="M9486 4858 c-9 -28 -24 -74 -32 -93 -7 -20 -7 -20 14 -1 25 22 28 12
7 -24 -17 -29 -18 -40 -6 -40 14 0 22 29 27 102 4 61 -1 88 -10 56z"/>
<path d="M9336 4473 c-6 -14 -5 -15 5 -6 7 7 10 15 7 18 -3 3 -9 -2 -12 -12z"/>
<path d="M9437 4326 c-4 -10 -1 -13 9 -9 7 3 14 9 14 14 0 14 -17 10 -23 -5z"/>
<path d="M9417 4246 c-4 -10 -7 -25 -6 -34 0 -11 4 -9 10 7 5 13 8 29 6 35 -2
5 -6 2 -10 -8z"/>
<path d="M9201 4212 c-6 -12 -11 -27 -11 -34 1 -7 8 0 16 15 9 16 13 31 11 34
-3 2 -10 -4 -16 -15z"/>
<path d="M9307 4070 c-9 -19 -30 -55 -47 -80 -31 -47 -36 -60 -21 -60 14 0 92
141 88 159 -3 11 -9 4 -20 -19z"/>
<path d="M9176 3849 l-18 -31 26 17 c14 10 26 24 26 31 0 23 -15 16 -34 -17z"/>
<path d="M1679 3728 c4 -12 13 -24 20 -26 9 -3 9 2 0 22 -15 32 -32 35 -20 4z"/>
<path d="M3340 2815 c7 -9 15 -13 17 -11 7 7 -7 26 -19 26 -6 0 -6 -6 2 -15z"/>
<path d="M2570 2692 c0 -4 18 -26 40 -47 45 -44 52 -40 14 10 -24 32 -54 52
-54 37z"/>
<path d="M3620 2551 c0 -18 69 -74 150 -121 47 -27 72 -38 55 -24 -16 14 -44
38 -61 53 -40 37 -144 103 -144 92z"/>
<path d="M7774 2518 l-19 -21 30 18 c41 26 40 25 23 25 -8 0 -23 -10 -34 -22z"/>
<path d="M7650 2471 c-42 -13 -130 -61 -130 -71 0 -7 165 63 179 76 7 6 -21 3
-49 -5z"/>
<path d="M3875 2400 c3 -5 11 -10 16 -10 6 0 7 5 4 10 -3 6 -11 10 -16 10 -6
0 -7 -4 -4 -10z"/>
<path d="M8887 2330 c-16 -9 -36 -28 -45 -41 -12 -17 -2 -12 31 15 60 49 65
59 14 26z"/>
<path d="M6490 2090 c0 -5 19 -10 43 -9 32 0 37 2 22 9 -28 12 -65 12 -65 0z"/>
<path d="M4954 2012 c3 -5 -18 -8 -47 -6 l-52 3 55 -14 c40 -11 61 -12 76 -4
15 8 32 5 72 -10 62 -25 102 -28 60 -6 -23 13 -137 44 -161 45 -5 0 -6 -4 -3
-8z"/>
<path d="M7205 1530 c-43 -11 -88 -30 -84 -35 3 -2 40 7 84 20 72 21 72 34 0
15z"/>
<path d="M6155 1390 c-27 -11 65 -12 120 -1 35 7 32 8 -30 8 -38 0 -79 -3 -90
-7z"/>
<path d="M5670 1331 c14 -4 51 -11 83 -15 45 -5 58 -3 55 6 -3 9 -30 14 -84
15 -50 1 -70 -1 -54 -6z"/>
<path d="M5933 1323 c15 -2 37 -2 50 0 12 2 0 4 -28 4 -27 0 -38 -2 -22 -4z"/>
<path d="M6240 1230 c-23 -7 -23 -8 -3 -9 12 -1 25 4 28 9 3 6 5 10 3 9 -2 -1
-14 -5 -28 -9z"/>
</g>
</svg>
